<?xml version="1.0" encoding="UTF-8"?><svg xmlns="http://www.w3.org/2000/svg" width="235.42" height="295.35" viewBox="0 0 235.42 295.35"><defs><style>.d{stroke-width:.5px;}.d,.e{stroke-linecap:round;}.d,.e,.f{fill:#f9f6fe;stroke:#234d1f;stroke-miterlimit:10;}</style></defs><g id="a"/><g id="b"><g id="c"><g><g><path class="e" d="M234.92,294.85H63.55V86.35C64.73,40.46,100.6,3.47,143.52,.67c46.85-3.06,89.88,35.39,91.4,85.68v208.5Z"/><path class="e" d="M228.46,289.14H70.03V102.13C63.94,51.5,103.43,8.39,148.16,7.81c45.45-.59,86.43,42.84,80.3,94.32v187.01Z"/><rect class="d" x="87.8" y="87.78" width="124.3" height="19.99"/><path class="e" d="M214.92,113.49H84.97c.94-1.9,1.88-3.81,2.83-5.71v-25.71h124.3v25.71c.94,1.9,1.88,3.81,2.83,5.71Z"/><path class="d" d="M216.35,127.77c-2.86,.95-5.71,1.9-8.57,2.86H93.54c-2.86-.95-5.71-1.9-8.57-2.86v159.94H216.35V127.77Z"/><rect class="d" x="93.54" y="137.39" width="114.24" height="144.61"/></g><g><rect class="f" x=".5" y="163.98" width="161.03" height="98.62"/><path class="f" d="M81.64,215.16c-26.21-17.06-52.43-34.12-78.64-51.18H159.04c-25.8,17.06-51.6,34.12-77.4,51.18Z"/><path class="f" d="M95.37,210.16c-.04,1.2-.19,4.47-2.5,7.49-3.79,4.98-10.11,4.99-11.23,4.99-1.4,0-6.21,0-9.99-3.74-.97-.97-3.74-4.05-3.74-8.74s2.87-7.87,3.74-8.74c3.43-3.39,7.7-3.62,9.99-3.74,2.64-.14,6.7-.36,9.99,2.5,3.96,3.45,3.79,8.78,3.74,9.99Z"/><path class="f" d="M92.88,211.41c-.31,1.85-1.57,3-3.74,4.99-2.08,1.9-3.72,3.4-6.24,3.74-3.41,.46-6.11-1.5-7.49-2.5-1.5-1.09-5.1-3.7-4.99-7.49,.08-2.75,2.07-4.64,3.74-6.24,1.52-1.45,3.95-3.77,7.49-3.74,3.18,.02,5.39,1.92,6.8,3.14,1.3,1.12,5.06,4.37,4.43,8.1Z"/></g></g></g></g></svg>